<?xml version="1.0" encoding="utf-8"?>
<svg viewBox="0 0 500 500" xmlns="http://www.w3.org/2000/svg">
  <defs>
    <linearGradient gradientUnits="userSpaceOnUse" x1="333.808" y1="254.431" x2="333.808" y2="277.253" id="gradient-0">
      <stop offset="0" style="stop-color: rgb(255, 255, 255);"/>
      <stop offset="1" style="stop-color: rgba(255, 255, 255, 0);"/>
    </linearGradient>
  </defs>
  <g transform="matrix(1, 0, 0, 1, -0.898047, -5.967993)">
    <path fill="#283593" fill-rule="evenodd" d="M 246.988 76.496 C 252.883 73.188 260.141 73.188 266.028 76.496 C 295.155 92.844 382.807 142.053 411.943 158.4 C 417.838 161.699 421.467 167.811 421.467 174.427 C 421.467 207.123 421.467 305.531 421.467 338.227 C 421.467 344.842 417.838 350.954 411.943 354.262 C 382.815 370.61 295.164 419.818 266.028 436.166 C 260.133 439.474 252.875 439.474 246.988 436.166 C 217.861 419.818 130.209 370.61 101.073 354.262 C 95.187 350.954 91.558 344.851 91.558 338.235 C 91.558 305.54 91.558 207.131 91.558 174.436 C 91.558 167.82 95.187 161.708 101.082 158.4 C 130.201 142.053 217.87 92.844 246.988 76.496 Z" clip-rule="evenodd" id="path2" style="fill: rgb(0, 68, 130); fill-opacity: 1;"/>
    <path fill="#5c6bc0" fill-rule="evenodd" d="M 94.197 346.657 C 91.888 343.566 91.558 340.632 91.558 336.681 C 91.558 304.177 91.558 206.333 91.558 173.819 C 91.558 167.238 95.178 161.161 101.056 157.879 C 130.079 141.627 217.436 92.705 246.459 76.444 C 252.336 73.154 260.298 73.223 266.175 76.514 C 295.199 92.766 382.26 141.271 411.283 157.524 C 413.627 158.843 415.415 160.432 417.013 162.524 L 94.197 346.657 Z" clip-rule="evenodd" id="path4" style="fill: rgb(101, 154, 210); fill-opacity: 1;"/>
    <path fill="#ffffff" fill-rule="evenodd" d="M 259.558 134.561 C 326.643 134.561 381.104 189.022 381.104 256.106 C 381.104 323.19 326.643 377.651 259.558 377.651 C 192.474 377.651 138.013 323.19 138.013 256.106 C 138.013 189.022 192.474 134.561 259.558 134.561 Z M 259.558 195.334 C 293.096 195.334 320.331 222.56 320.331 256.106 C 320.331 289.644 293.096 316.879 259.558 316.879 C 226.021 316.879 198.786 289.644 198.786 256.106 C 198.786 222.56 226.012 195.334 259.558 195.334 Z" clip-rule="evenodd" id="path6" style=""/>
    <path fill="#3949ab" fill-rule="evenodd" d="M 416.996 162.611 C 421.475 166.804 421.389 173.125 421.389 178.099 C 421.389 211.047 421.111 304.758 421.467 337.706 C 421.501 341.144 420.364 344.764 418.662 347.49 L 252.979 256.331 L 416.996 162.611 Z" clip-rule="evenodd" id="path8" style="fill: rgb(0, 89, 156); fill-opacity: 1;"/>
    <text style="fill: rgb(242, 242, 242); font-family: Arial, sans-serif; font-size: 20.4278px; font-style: italic; font-weight: 700; letter-spacing: 0.4px; paint-order: stroke; stroke: url(#gradient-0); stroke-width: 1.03899px; white-space: pre;" transform="matrix(2.984549, 0, 0, 2.790313, -648.541748, -486.891541)" x="325.998" y="272.918">H</text>
  </g>
</svg>